<?xml version="1.0" encoding="utf-8"?><svg xmlns="http://www.w3.org/2000/svg" xmlns:xlink="http://www.w3.org/1999/xlink" width="1453" height="675" preserveAspectRatio="xMidYMid" viewBox="0 0 1453 675" style="z-index:1;margin-right:-2px;display:block;background-repeat-y:initial;background-repeat-x:initial;background-color:rgb(255, 255, 255);animation-play-state:paused" ><g transform="" style="animation-play-state:paused" ><g transform="translate(344.5179181688798,127.50357345906212) scale(100)" opacity="0.9" style="transform:matrix(100, 0, 0, 100, 344.518, 127.504);opacity:0.9;animation-play-state:paused" ><path d="M4.206435000000001 0 C4.206435000000001 1.0025700000000002 4.408414900824742 1.3875314109278352 3.907129900824742 2.2557825 S2.9714685890721655 3.1415945693679954 2.103217500000001 3.6428795693679956 S1.0025700000000004 4.511565000000001 2.7625368181976147e-16 4.511565000000001 S-1.2349664109278347 4.144164569367996 -2.1032174999999995 3.642879569367996 S-3.4058449008247402 3.1240335890721664 -3.907129900824741 2.255782500000002 S-4.206435000000001 1.0025700000000006 -4.206435000000001 5.151397158571398e-16 S-4.408414900824742 -1.387531410927834 -3.9071299008247427 -2.255782499999999 S-2.971468589072167 -3.1415945693679945 -2.103217500000002 -3.642879569367995 S-1.002570000000001 -4.511565000000001 -8.287610454592844e-16 -4.511565000000001 S1.2349664109278327 -4.144164569367997 2.1032174999999977 -3.6428795693679974 S3.40584490082474 -3.1240335890721673 3.9071299008247404 -2.2557825000000027 S4.206435000000001 -1.0025700000000013 4.206435000000001 -1.0302794317142795e-15" fill="#072b43" stroke-width="0" transform="matrix(1,0,0,1,0,0)" style="transform:matrix(1, 0, 0, 1, 0, 0);animation-play-state:paused" ></path></g>
<g transform="translate(268.12150180265587,85.50428815087457) scale(100)" opacity="0.9" style="transform:matrix(100, 0, 0, 100, 268.121, 85.5043);opacity:0.9;animation-play-state:paused" ><path d="M5.047722 0 C5.047722 1.203084 5.2900978809896895 1.6650376931134017 4.688555880989689 2.7069389999999993 S3.5657623068865982 3.769913483241594 2.5238610000000006 4.371455483241594 S1.2030840000000003 5.4138779999999995 3.315044181837137e-16 5.4138779999999995 S-1.4819596931134011 4.972997483241594 -2.523860999999999 4.371455483241594 S-4.087013880989687 3.748840306886599 -4.6885558809896875 2.7069390000000015 S-5.047722 1.2030840000000007 -5.047722 6.181676590285677e-16 S-5.290097880989689 -1.6650376931134006 -4.688555880989689 -2.7069389999999984 S-3.5657623068866 -3.769913483241593 -2.5238610000000024 -4.3714554832415935 S-1.203084000000001 -5.4138779999999995 -9.94513254551141e-16 -5.4138779999999995 S1.4819596931133985 -4.9729974832415955 2.5238609999999966 -4.371455483241596 S4.087013880989687 -3.748840306886599 4.6885558809896875 -2.706939000000002 S5.047722 -1.2030840000000014 5.047722 -1.2363353180571353e-15" fill="#072b43" stroke-width="0" transform="matrix(1,0,0,1,0,0)" style="transform:matrix(1, 0, 0, 1, 0, 0);animation-play-state:paused" ></path></g></g></svg>